<?xml version="1.0" encoding="UTF-8" standalone="no"?>
<svg
   height="50"
   viewBox="0 -960 2000 2000"
   width="50"
   fill="#1f1f1f"
   version="1.1"
   id="svg1"
   xmlns="http://www.w3.org/2000/svg"
   xmlns:svg="http://www.w3.org/2000/svg">
  <defs
     id="defs1" />
  <rect
     style="fill:#e91e63;fill-opacity:1;stroke-width:120;stroke-dasharray:240, 240"
     id="rect1"
     width="2000"
     height="2000"
     x="0"
     y="-960" />
  <path
     d="M 720,280 Q 637,280 578.5,221.5 520,163 520,80 520,-3 578.5,-61.5 637,-120 720,-120 q 83,0 141.5,58.5 Q 920,-3 920,80 920,163 861.5,221.5 803,280 720,280 Z m 85,-115 q 35,-35 35,-85 0,-50 -35,-85 -35,-35 -85,-35 -50,0 -85,35 -35,35 -35,85 0,50 35,85 35,35 85,35 50,0 85,-35 z m 155,-5 V -40 L 832,-152 q -12,-11 -18,-25.5 -6,-14.5 -6,-30.5 0,-16 6.5,-30.5 Q 821,-253 832,-264 l 112,-112 q 12,-12 27.5,-18 15.5,-6 32.5,-6 17,0 32.5,6 15.5,6 27.5,18 l 76,76 q 28,28 64,44 36,16 76,16 v 80 q -57,0 -108.5,-22 -51.5,-22 -91.5,-62 l -32,-32 -96,96 88,92 v 248 z m 123.5,-563.5 Q 1060,-427 1060,-460 q 0,-33 23.5,-56.5 23.5,-23.5 56.5,-23.5 33,0 56.5,23.5 23.5,23.5 23.5,56.5 0,33 -23.5,56.5 -23.5,23.5 -56.5,23.5 -33,0 -56.5,-23.5 z M 1280,280 q -83,0 -141.5,-58.5 Q 1080,163 1080,80 q 0,-83 58.5,-141.5 58.5,-58.5 141.5,-58.5 83,0 141.5,58.5 Q 1480,-3 1480,80 q 0,83 -58.5,141.5 Q 1363,280 1280,280 Z m 85,-115 q 35,-35 35,-85 0,-50 -35,-85 -35,-35 -85,-35 -50,0 -85,35 -35,35 -35,85 0,50 35,85 35,35 85,35 50,0 85,-35 z"
     id="path1"
     style="fill:#ffffff;fill-opacity:1" />
  <text
     xml:space="preserve"
     style="font-weight:600;font-size:320px;line-height:1;font-family:inter;-inkscape-font-specification:'inter Semi-Bold';text-align:center;text-decoration-color:#000000;letter-spacing:10px;writing-mode:lr-tb;direction:ltr;text-anchor:middle;fill:#ffffff;fill-opacity:1;stroke-width:120;stroke-dasharray:240, 240"
     x="1000.5469"
     y="598.84625"
     id="text2"><tspan
       id="tspan2"
       style="font-style:normal;font-variant:normal;font-weight:bold;font-stretch:normal;font-size:320px;font-family:Inter;-inkscape-font-specification:'Inter Bold';letter-spacing:10px;stroke-width:120"
       x="1005.5469"
       y="598.84625">OBMS</tspan></text>
</svg>
